<svg width="291" height="67" viewBox="0 0 291 67" fill="none" xmlns="http://www.w3.org/2000/svg">
<path fill-rule="evenodd" clip-rule="evenodd" d="M0.922451 15.615C0.470081 29.9777 -0.243729 52.641 26.6463 66.0686V66.0688C26.6463 66.0688 26.6464 66.0688 26.6464 66.0687C53.3942 52.725 52.6841 30.2033 52.2341 15.9304C52.1809 14.2408 52.1312 12.6669 52.1312 11.2374C38.6062 9.02114 29.6582 3.48898 26.6464 0.820957V0.4104C23.6188 3.09514 14.6231 8.66226 1.02589 10.8925C1.02589 12.3309 0.976001 13.9148 0.922451 15.615Z" fill="#018B0A"/>
<path fill-rule="evenodd" clip-rule="evenodd" d="M26.6332 10.3317C26.6331 10.3316 26.6329 10.3315 26.6328 10.3314V10.3328C26.6329 10.3324 26.6331 10.332 26.6332 10.3317ZM27.3327 9.07785C27.0553 9.40655 26.8213 9.82417 26.6332 10.3317C31.8762 13.7444 37.9276 16.2352 44.8366 17.9259C45.723 18.8478 46.7448 19.1871 47.9827 18.603C48.2444 18.6555 48.4975 18.7079 48.7518 18.7607C48.9416 18.8 49.1321 18.8395 49.3273 18.8793C50.1604 19.9243 51.2095 20.0174 52.4735 19.4018V10.6091C46.0212 9.56401 39.5935 7.81175 33.7308 4.70666C32.5404 4.68482 31.7182 5.08306 31.2957 5.96152L30.8866 5.81494C29.6783 6.2481 27.2618 7.47007 27.2618 8.89267C27.2618 8.94965 27.2859 9.01149 27.3327 9.07785Z" fill="#B0DBB3"/>
<path fill-rule="evenodd" clip-rule="evenodd" d="M7.77064 15.2752C7.30847 16.3662 7.76451 17.1639 8.43011 17.9247C14.7771 16.3886 20.9873 13.9893 26.6339 10.3302C27.6817 9.65451 28.7308 8.91586 29.6993 8.17857C30.1302 7.83933 30.5597 7.50146 30.9906 7.1636C31.9317 6.36339 32.8454 5.56454 33.7318 4.70415C31.2587 3.3814 28.8663 1.81381 26.6339 0C25.7188 0.738656 24.805 1.44448 23.8379 2.09012C19.1324 5.34979 13.862 7.53156 8.43011 8.97741C7.38569 10.0161 7.39612 11.0547 8.02376 12.0933L6.94873 12.7226C6.94873 13.1651 7.12406 14.205 7.77064 15.2752Z" fill="#D9EEDA"/>
<path fill-rule="evenodd" clip-rule="evenodd" d="M52.4733 22.0446V19.4005C52.0087 19.3207 51.549 19.2468 51.0943 19.1737C51.0554 19.1674 51.0165 19.1612 50.9777 19.1549L49.0795 18.8098L47.9825 18.6041V18.6017L47.8765 18.5798C46.8628 18.371 45.8502 18.1625 44.8364 17.9246V22.0446C44.8364 39.968 39.1364 49.0384 26.6326 56.6014C24.6839 57.7825 22.6778 58.8666 20.6766 59.9479C19.9175 60.3581 19.1591 60.7679 18.4048 61.1825C20.8519 62.9976 23.5945 64.7184 26.6326 66.3476C44.9171 56.4482 52.4733 43.9964 52.4733 22.0446Z" fill="white"/>
<path fill-rule="evenodd" clip-rule="evenodd" d="M0.793457 22.045V10.6082H0.794825C3.37602 10.1773 5.92985 9.65474 8.43034 8.979V22.045C8.43034 39.9684 14.1577 49.0388 26.6341 56.6018C26.2583 57.7913 25.5547 58.5845 24.2089 58.6403L25.8255 60.2569H21.5703C21.1358 61.3323 20.1158 61.2714 19.1001 61.2108C18.8657 61.1968 18.6316 61.1829 18.4049 61.1829C6.06391 52.0522 0.793457 40.3377 0.793457 22.045Z" fill="white"/>
<g clip-path="url(#clip0_2057_7911)">
<path d="M31.9145 40.2872L31.5621 41.7281C30.5046 42.1455 29.6599 42.4631 29.0309 42.6815C28.4013 42.9006 27.6696 43.0096 26.836 43.0096C25.5559 43.0096 24.5602 42.696 23.85 42.0731C23.1398 41.4477 22.7846 40.6553 22.7846 39.6939C22.7846 39.3218 22.8104 38.939 22.864 38.549C22.918 38.1585 23.004 37.7188 23.1215 37.2272L24.443 32.5498C24.5606 32.1019 24.6605 31.6775 24.7406 31.2762C24.8217 30.8774 24.8609 30.5104 24.8609 30.1801C24.8609 29.5828 24.7372 29.165 24.491 28.9301C24.2448 28.6958 23.7749 28.5769 23.0774 28.5769C22.7358 28.5769 22.3847 28.6316 22.0268 28.7374C21.6673 28.8437 21.36 28.9463 21.1021 29.0417L21.4554 27.5997C22.3211 27.2472 23.1487 26.9454 23.9402 26.6949C24.7318 26.4437 25.4797 26.318 26.1871 26.318C27.4585 26.318 28.4395 26.6252 29.1284 27.2398C29.8173 27.8547 30.1616 28.652 30.1616 29.6343C30.1616 29.8376 30.139 30.1957 30.0904 30.7076C30.0429 31.2206 29.9545 31.6907 29.8257 32.1182L28.5098 36.7769C28.4019 37.1511 28.305 37.5788 28.2206 38.0602C28.1336 38.5384 28.092 38.9037 28.092 39.1488C28.092 39.7674 28.2299 40.1898 28.5064 40.4143C28.785 40.6388 29.2647 40.7505 29.9462 40.7505C30.2661 40.7505 30.6301 40.6937 31.0346 40.5823C31.4379 40.4708 31.7321 40.3729 31.9145 40.2872ZM32.2483 20.7287C32.2483 21.5404 31.9424 22.2336 31.3276 22.8036C30.7144 23.3756 29.9756 23.6618 29.1112 23.6618C28.2441 23.6618 27.5034 23.3756 26.8833 22.8036C26.2642 22.2334 25.954 21.5404 25.954 20.7287C25.954 19.9186 26.2642 19.2243 26.8833 18.6471C27.5023 18.0708 28.2444 17.7827 29.1112 17.7827C29.9753 17.7827 30.7144 18.0714 31.3276 18.6471C31.9428 19.2243 32.2483 19.9189 32.2483 20.7287Z" fill="white"/>
</g>
<path d="M66.6663 26.8795V22.6557H84.8537V26.8795H78.3289V44.1738H73.2016V26.8795H66.6663ZM89.7473 44.447C88.7176 44.447 87.8035 44.2754 87.005 43.9322C86.2135 43.5819 85.5866 43.0566 85.1243 42.3561C84.669 41.6487 84.4413 40.7626 84.4413 39.6979C84.4413 38.8013 84.5989 38.0448 84.9141 37.4284C85.2293 36.812 85.6636 36.3112 86.217 35.9259C86.7704 35.5407 87.4078 35.25 88.1292 35.0539C88.8507 34.8507 89.6212 34.7141 90.4408 34.6441C91.3584 34.56 92.0973 34.4725 92.6577 34.3814C93.2181 34.2833 93.6243 34.1468 93.8765 33.9716C94.1357 33.7895 94.2653 33.5339 94.2653 33.2046V33.1521C94.2653 32.6128 94.0796 32.196 93.7084 31.9018C93.3372 31.6076 92.8363 31.4605 92.2059 31.4605C91.5265 31.4605 90.9801 31.6076 90.5668 31.9018C90.1536 32.196 89.8909 32.6022 89.7788 33.1206L85.0402 32.9525C85.1803 31.9718 85.5411 31.0963 86.1224 30.3258C86.7108 29.5482 87.5163 28.9388 88.539 28.4976C89.5687 28.0493 90.805 27.8251 92.2479 27.8251C93.2776 27.8251 94.2267 27.9477 95.0953 28.1929C95.9639 28.431 96.7204 28.7812 97.3648 29.2435C98.0092 29.6988 98.5065 30.2592 98.8568 30.9246C99.214 31.5901 99.3926 32.3501 99.3926 33.2046V44.1738H94.5595V41.9254H94.4334C94.1462 42.4717 93.7784 42.934 93.3302 43.3123C92.8889 43.6905 92.367 43.9742 91.7646 44.1633C91.1692 44.3524 90.4968 44.447 89.7473 44.447ZM91.3338 41.0848C91.8872 41.0848 92.3845 40.9727 92.8258 40.7486C93.2741 40.5244 93.6314 40.2162 93.8975 39.824C94.1637 39.4247 94.2968 38.9624 94.2968 38.4371V36.9031C94.1497 36.9801 93.9711 37.0502 93.7609 37.1132C93.5578 37.1762 93.3337 37.2358 93.0885 37.2918C92.8433 37.3479 92.5912 37.3969 92.332 37.4389C92.0728 37.4809 91.8242 37.5195 91.586 37.5545C91.1027 37.6315 90.6894 37.7506 90.3462 37.9117C90.01 38.0728 89.7508 38.283 89.5687 38.5421C89.3936 38.7943 89.306 39.0955 89.306 39.4457C89.306 39.9781 89.4951 40.3843 89.8734 40.6645C90.2586 40.9447 90.7455 41.0848 91.3338 41.0848ZM107.672 22.6557V44.1738H102.534V22.6557H107.672ZM118.486 44.4785C116.798 44.4785 115.341 44.1458 114.115 43.4804C112.897 42.8079 111.958 41.8518 111.3 40.612C110.648 39.3652 110.322 37.8837 110.322 36.1676C110.322 34.5005 110.652 33.0435 111.31 31.7967C111.968 30.5429 112.897 29.5693 114.094 28.8758C115.292 28.1753 116.704 27.8251 118.329 27.8251C119.477 27.8251 120.528 28.0037 121.481 28.361C122.433 28.7182 123.256 29.247 123.95 29.9475C124.643 30.648 125.183 31.513 125.568 32.5427C125.953 33.5654 126.146 34.7386 126.146 36.0625V37.3444H112.119V34.3604H121.365C121.358 33.814 121.229 33.3272 120.976 32.8999C120.724 32.4727 120.378 32.1399 119.936 31.9018C119.502 31.6566 119.001 31.534 118.434 31.534C117.859 31.534 117.345 31.6636 116.889 31.9228C116.434 32.175 116.073 32.5217 115.807 32.963C115.541 33.3973 115.401 33.8911 115.387 34.4445V37.4809C115.387 38.1394 115.516 38.7173 115.775 39.2146C116.035 39.7049 116.402 40.0866 116.879 40.3598C117.355 40.633 117.922 40.7696 118.581 40.7696C119.036 40.7696 119.449 40.7066 119.821 40.5805C120.192 40.4544 120.511 40.2688 120.777 40.0236C121.043 39.7784 121.243 39.4772 121.376 39.12L126.093 39.2566C125.897 40.3143 125.466 41.2354 124.801 42.0199C124.142 42.7974 123.277 43.4033 122.206 43.8376C121.134 44.2649 119.894 44.4785 118.486 44.4785ZM133.908 34.9698V44.1738H128.77V28.0353H133.656V30.9982H133.834C134.191 30.0105 134.801 29.2365 135.662 28.6762C136.524 28.1088 137.55 27.8251 138.741 27.8251C139.876 27.8251 140.86 28.0808 141.693 28.5921C142.534 29.0964 143.185 29.8039 143.648 30.7145C144.117 31.6181 144.348 32.6758 144.341 33.8876V44.1738H139.203V34.8962C139.21 33.9997 138.983 33.2992 138.52 32.7949C138.065 32.2905 137.431 32.0384 136.619 32.0384C136.079 32.0384 135.603 32.1575 135.19 32.3956C134.783 32.6268 134.468 32.9595 134.244 33.3938C134.027 33.828 133.915 34.3534 133.908 34.9698ZM156.632 28.0353V31.8177H146.45V28.0353H156.632ZM148.583 24.1687H153.721V39.099C153.721 39.4142 153.77 39.6699 153.868 39.866C153.973 40.0551 154.124 40.1917 154.32 40.2758C154.516 40.3528 154.751 40.3913 155.024 40.3913C155.22 40.3913 155.427 40.3738 155.644 40.3388C155.868 40.2968 156.036 40.2618 156.148 40.2337L156.926 43.9427C156.681 44.0127 156.334 44.1003 155.886 44.2053C155.444 44.3104 154.915 44.377 154.299 44.405C153.094 44.461 152.061 44.3209 151.199 43.9847C150.345 43.6415 149.69 43.1091 149.235 42.3877C148.786 41.6662 148.569 40.7591 148.583 39.6664V24.1687ZM170.811 22.6557V44.1738H165.61V22.6557H170.811ZM179.213 34.9698V44.1738H174.076V28.0353H178.961V30.9982H179.14C179.497 30.0105 180.107 29.2365 180.968 28.6762C181.83 28.1088 182.856 27.8251 184.047 27.8251C185.181 27.8251 186.165 28.0808 186.999 28.5921C187.84 29.0964 188.491 29.8039 188.953 30.7145C189.423 31.6181 189.654 32.6758 189.647 33.8876V44.1738H184.509V34.8962C184.516 33.9997 184.288 33.2992 183.826 32.7949C183.371 32.2905 182.737 32.0384 181.924 32.0384C181.385 32.0384 180.909 32.1575 180.495 32.3956C180.089 32.6268 179.774 32.9595 179.55 33.3938C179.333 33.828 179.22 34.3534 179.213 34.9698ZM201.937 28.0353V31.8177H191.756V28.0353H201.937ZM193.889 24.1687H199.027V39.099C199.027 39.4142 199.076 39.6699 199.174 39.866C199.279 40.0551 199.43 40.1917 199.626 40.2758C199.822 40.3528 200.056 40.3913 200.33 40.3913C200.526 40.3913 200.732 40.3738 200.95 40.3388C201.174 40.2968 201.342 40.2618 201.454 40.2337L202.231 43.9427C201.986 44.0127 201.64 44.1003 201.191 44.2053C200.75 44.3104 200.221 44.377 199.605 44.405C198.4 44.461 197.367 44.3209 196.505 43.9847C195.651 43.6415 194.996 43.1091 194.54 42.3877C194.092 41.6662 193.875 40.7591 193.889 39.6664V24.1687ZM211.929 44.4785C210.241 44.4785 208.784 44.1458 207.558 43.4804C206.34 42.8079 205.401 41.8518 204.743 40.612C204.091 39.3652 203.765 37.8837 203.765 36.1676C203.765 34.5005 204.095 33.0435 204.753 31.7967C205.411 30.5429 206.34 29.5693 207.537 28.8758C208.735 28.1753 210.147 27.8251 211.772 27.8251C212.92 27.8251 213.971 28.0037 214.924 28.361C215.876 28.7182 216.699 29.247 217.393 29.9475C218.086 30.648 218.626 31.513 219.011 32.5427C219.396 33.5654 219.589 34.7386 219.589 36.0625V37.3444H205.562V34.3604H214.808C214.801 33.814 214.672 33.3272 214.419 32.8999C214.167 32.4727 213.82 32.1399 213.379 31.9018C212.945 31.6566 212.444 31.534 211.877 31.534C211.302 31.534 210.788 31.6636 210.332 31.9228C209.877 32.175 209.516 32.5217 209.25 32.963C208.984 33.3973 208.844 33.8911 208.83 34.4445V37.4809C208.83 38.1394 208.959 38.7173 209.218 39.2146C209.478 39.7049 209.845 40.0866 210.322 40.3598C210.798 40.633 211.365 40.7696 212.024 40.7696C212.479 40.7696 212.892 40.7066 213.264 40.5805C213.635 40.4544 213.954 40.2688 214.22 40.0236C214.486 39.7784 214.686 39.4772 214.819 39.12L219.536 39.2566C219.34 40.3143 218.909 41.2354 218.244 42.0199C217.585 42.7974 216.72 43.4033 215.649 43.8376C214.577 44.2649 213.337 44.4785 211.929 44.4785ZM229.736 50.562C228.202 50.562 226.888 50.3484 225.796 49.9211C224.703 49.4938 223.845 48.9089 223.222 48.1664C222.598 47.424 222.223 46.5834 222.097 45.6448L226.962 45.3716C227.053 45.7008 227.221 45.988 227.466 46.2332C227.718 46.4783 228.044 46.6675 228.443 46.8005C228.85 46.9336 229.326 47.0002 229.872 47.0002C230.734 47.0002 231.445 46.79 232.005 46.3698C232.573 45.9565 232.856 45.2315 232.856 44.1948V41.358H232.678C232.475 41.8553 232.166 42.3001 231.753 42.6924C231.34 43.0846 230.825 43.3928 230.209 43.617C229.599 43.8411 228.899 43.9532 228.107 43.9532C226.93 43.9532 225.852 43.68 224.871 43.1336C223.897 42.5803 223.116 41.7257 222.528 40.57C221.947 39.4072 221.656 37.9117 221.656 36.0835C221.656 34.1993 221.957 32.6478 222.56 31.429C223.162 30.2032 223.95 29.2961 224.924 28.7077C225.904 28.1193 226.958 27.8251 228.086 27.8251C228.934 27.8251 229.659 27.9722 230.261 28.2664C230.871 28.5536 231.371 28.9248 231.764 29.3801C232.156 29.8354 232.454 30.3082 232.657 30.7986H232.804V28.0353H237.921V44.2369C237.921 45.6028 237.577 46.755 236.891 47.6936C236.205 48.6323 235.245 49.3432 234.012 49.8265C232.779 50.3169 231.354 50.562 229.736 50.562ZM229.893 40.2127C230.517 40.2127 231.049 40.0481 231.49 39.7189C231.932 39.3897 232.271 38.9169 232.51 38.3005C232.748 37.6841 232.867 36.9451 232.867 36.0835C232.867 35.208 232.748 34.455 232.51 33.8245C232.278 33.1871 231.939 32.6968 231.49 32.3536C231.049 32.0104 230.517 31.8387 229.893 31.8387C229.256 31.8387 228.717 32.0139 228.275 32.3641C227.834 32.7143 227.498 33.2081 227.267 33.8456C227.043 34.476 226.93 35.222 226.93 36.0835C226.93 36.9451 227.046 37.6841 227.277 38.3005C227.508 38.9169 227.841 39.3897 228.275 39.7189C228.717 40.0481 229.256 40.2127 229.893 40.2127ZM241.196 44.1738V28.0353H246.187V30.9772H246.355C246.649 29.9125 247.129 29.121 247.795 28.6026C248.46 28.0773 249.234 27.8146 250.117 27.8146C250.355 27.8146 250.6 27.8321 250.852 27.8671C251.104 27.8952 251.339 27.9407 251.556 28.0037V32.4692C251.311 32.3851 250.989 32.3186 250.589 32.2695C250.197 32.2205 249.847 32.196 249.539 32.196C248.929 32.196 248.379 32.3326 247.889 32.6057C247.406 32.8719 247.024 33.2467 246.744 33.73C246.471 34.2063 246.334 34.7667 246.334 35.4111V44.1738H241.196ZM253.649 44.1738V28.0353H258.787V44.1738H253.649ZM256.224 26.1545C255.502 26.1545 254.882 25.9164 254.364 25.4401C253.846 24.9567 253.586 24.3754 253.586 23.6959C253.586 23.0235 253.846 22.4491 254.364 21.9728C254.882 21.4895 255.502 21.2478 256.224 21.2478C256.952 21.2478 257.572 21.4895 258.083 21.9728C258.602 22.4491 258.861 23.0235 258.861 23.6959C258.861 24.3754 258.602 24.9567 258.083 25.4401C257.572 25.9164 256.952 26.1545 256.224 26.1545ZM271.167 28.0353V31.8177H260.986V28.0353H271.167ZM263.119 24.1687H268.257V39.099C268.257 39.4142 268.306 39.6699 268.404 39.866C268.509 40.0551 268.659 40.1917 268.856 40.2758C269.052 40.3528 269.286 40.3913 269.56 40.3913C269.756 40.3913 269.962 40.3738 270.179 40.3388C270.404 40.2968 270.572 40.2618 270.684 40.2337L271.461 43.9427C271.216 44.0127 270.869 44.1003 270.421 44.2053C269.98 44.3104 269.451 44.377 268.835 44.405C267.63 44.461 266.597 44.3209 265.735 43.9847C264.88 43.6415 264.226 43.1091 263.77 42.3877C263.322 41.6662 263.105 40.7591 263.119 39.6664V24.1687ZM276.93 50.2258C276.314 50.2258 275.732 50.1768 275.186 50.0787C274.64 49.9876 274.17 49.8651 273.778 49.711L274.913 45.981C275.417 46.1491 275.872 46.2472 276.279 46.2752C276.692 46.3032 277.046 46.2367 277.34 46.0756C277.641 45.9215 277.872 45.6448 278.033 45.2455L278.233 44.7622L272.496 28.0353H277.876L280.849 39.5508H281.017L284.033 28.0353H289.444L283.36 45.7183C283.066 46.6009 282.649 47.3784 282.11 48.0509C281.578 48.7303 280.888 49.2627 280.04 49.6479C279.2 50.0332 278.163 50.2258 276.93 50.2258Z" fill="white"/>
<defs>
<clipPath id="clip0_2057_7911">
<rect width="25.2269" height="25.2269" fill="white" transform="translate(14.0615 17.7825)"/>
</clipPath>
</defs>
</svg>
