<svg width="310" height="87" viewBox="0 0 310 87" fill="none" xmlns="http://www.w3.org/2000/svg">
<path fill-rule="evenodd" clip-rule="evenodd" d="M10.129 25.6146C9.67663 39.9769 8.96284 62.6397 35.8523 76.067C62.5995 62.7236 61.8895 40.2024 61.4395 25.9299C61.3862 24.2404 61.3366 22.6664 61.3366 21.237C47.8117 19.0208 38.8639 13.4886 35.8523 10.8207L35.8523 10.4104C32.8247 13.0951 23.8293 18.662 10.2324 20.8922C10.2324 22.3306 10.1825 23.9145 10.129 25.6146Z" fill="#E6F3E7"/>
<path fill-rule="evenodd" clip-rule="evenodd" d="M35.8393 20.3315C35.8391 20.3314 35.839 20.3313 35.8389 20.3312V20.3326C35.839 20.3322 35.8391 20.3319 35.8393 20.3315ZM36.5388 19.0776C36.2614 19.4063 36.0274 19.824 35.8393 20.3315C41.0821 23.7441 47.1334 26.2349 54.0422 27.9255C54.9285 28.8475 55.9503 29.1867 57.1882 28.6026C57.4499 28.6551 57.703 28.7076 57.9574 28.7603C58.1471 28.7997 58.3376 28.8392 58.5328 28.8789C59.3658 29.9239 60.415 30.017 61.6789 29.4014V20.6089C55.2267 19.5639 48.7992 17.8117 42.9366 14.7067C41.7464 14.6848 40.9243 15.083 40.5017 15.9613L40.0926 15.8147C38.8844 16.2478 36.4678 17.4698 36.4678 18.8923C36.4678 18.9493 36.492 19.0112 36.5388 19.0776Z" fill="#015306"/>
<path fill-rule="evenodd" clip-rule="evenodd" d="M16.9772 25.2748C16.515 26.3658 16.9711 27.1634 17.6366 27.9243C23.9835 26.3882 30.1935 23.989 35.8399 20.33C36.8877 19.6543 37.9369 18.9156 38.9053 18.1784C39.3362 17.8391 39.7657 17.5013 40.1965 17.1634C41.1376 16.3632 42.0513 15.5644 42.9377 14.704C40.4646 13.3813 38.0723 11.8138 35.8399 10C34.9249 10.7386 34.0111 11.4444 33.0441 12.0901C28.3387 15.3496 23.0684 17.5314 17.6366 18.9772C16.5923 20.0158 16.6027 21.0544 17.2303 22.093L16.1553 22.7223C16.1553 23.1648 16.3306 24.2047 16.9772 25.2748Z" fill="#017D09"/>
<path fill-rule="evenodd" clip-rule="evenodd" d="M61.6784 32.044V29.4C61.2139 29.3202 60.7542 29.2463 60.2995 29.1732C60.2624 29.1672 60.2254 29.1613 60.1885 29.1553L58.285 28.8092L57.1878 28.6035V28.6012L57.0818 28.5793C56.0681 28.3705 55.0556 28.162 54.0417 27.9241V32.044C54.0417 49.9669 48.3419 59.0371 35.8384 66.5999C33.8899 67.781 31.8838 68.8649 29.8828 69.9462C29.1236 70.3564 28.3651 70.7663 27.6108 71.1808C30.0579 72.996 32.8004 74.7167 35.8384 76.3458C54.1224 66.4467 61.6784 53.9952 61.6784 32.044Z" fill="#018B0A"/>
<path fill-rule="evenodd" clip-rule="evenodd" d="M10 32.0442V20.6076H10.0014C12.5825 20.1767 15.1363 19.6542 17.6367 18.9785V32.0442C17.6367 49.9671 23.3639 59.0373 35.84 66.6001C35.4641 67.7895 34.7606 68.5827 33.4149 68.6385L35.0316 70.2552H30.7762C30.3417 71.3305 29.3218 71.2696 28.3062 71.209C28.0718 71.195 27.8377 71.181 27.611 71.181C15.2703 62.0506 10 50.3364 10 32.0442Z" fill="#018B0A"/>
<g clip-path="url(#clip0_2094_11377)">
<path d="M41.1203 50.2861L40.7678 51.727C39.7104 52.1443 38.8658 52.462 38.2368 52.6804C37.6071 52.8995 36.8755 53.0085 36.0419 53.0085C34.7618 53.0085 33.7661 52.6949 33.056 52.072C32.3458 51.4466 31.9907 50.6542 31.9907 49.6929C31.9907 49.3207 32.0164 48.938 32.07 48.548C32.124 48.1575 32.21 47.7178 32.3275 47.2263L33.649 42.5489C33.7666 42.1011 33.8665 41.6767 33.9465 41.2754C34.0277 40.8766 34.0668 40.5096 34.0668 40.1793C34.0668 39.582 33.9431 39.1642 33.6969 38.9293C33.4507 38.695 32.9809 38.5761 32.2834 38.5761C31.9418 38.5761 31.5907 38.6308 31.2328 38.7366C30.8733 38.8429 30.5661 38.9456 30.3081 39.041L30.6615 37.599C31.5272 37.2465 32.3547 36.9447 33.1462 36.6942C33.9377 36.443 34.6856 36.3173 35.3931 36.3173C36.6643 36.3173 37.6453 36.6245 38.3342 37.239C39.0231 37.854 39.3675 38.6512 39.3675 39.6335C39.3675 39.8368 39.3448 40.1949 39.2962 40.7068C39.2488 41.2198 39.1604 41.6898 39.0315 42.1173L37.7157 46.7759C37.6078 47.1501 37.5108 47.5778 37.4265 48.0592C37.3394 48.5373 37.2978 48.9027 37.2978 49.1478C37.2978 49.7664 37.4358 50.1887 37.7123 50.4132C37.9908 50.6377 38.4706 50.7494 39.152 50.7494C39.4719 50.7494 39.8359 50.6926 40.2404 50.5812C40.6437 50.4697 40.9379 50.3718 41.1203 50.2861ZM41.454 30.7282C41.454 31.5398 41.1481 32.233 40.5334 32.803C39.9202 33.375 39.1814 33.6612 38.3171 33.6612C37.45 33.6612 36.7093 33.375 36.0892 32.803C35.4701 32.2328 35.16 31.5398 35.16 30.7282C35.16 29.9181 35.4701 29.2238 36.0892 28.6466C36.7082 28.0703 37.4502 27.7822 38.3171 27.7822C39.1812 27.7822 39.9202 28.0709 40.5334 28.6466C41.1486 29.2238 41.454 29.9183 41.454 30.7282Z" fill="#018B0A"/>
</g>
<path d="M75.8714 36.8785V32.6547H94.0588V36.8785H87.534V54.1729H82.4067V36.8785H75.8714ZM98.9524 54.446C97.9227 54.446 97.0086 54.2744 96.2101 53.9312C95.4186 53.581 94.7917 53.0556 94.3294 52.3552C93.8741 51.6477 93.6464 50.7616 93.6464 49.6969C93.6464 48.8003 93.804 48.0438 94.1192 47.4274C94.4344 46.811 94.8687 46.3102 95.4221 45.9249C95.9754 45.5397 96.6129 45.249 97.3343 45.0529C98.0558 44.8497 98.8263 44.7132 99.6458 44.6431C100.563 44.5591 101.302 44.4715 101.863 44.3804C102.423 44.2824 102.829 44.1458 103.082 43.9707C103.341 43.7885 103.47 43.5329 103.47 43.2037V43.1511C103.47 42.6118 103.285 42.195 102.913 41.9008C102.542 41.6066 102.041 41.4595 101.411 41.4595C100.732 41.4595 100.185 41.6066 99.7719 41.9008C99.3587 42.195 99.096 42.6013 98.9839 43.1196L94.2453 42.9515C94.3854 41.9709 94.7461 41.0953 95.3275 40.3248C95.9159 39.5473 96.7214 38.9379 97.7441 38.4966C98.7738 38.0483 100.01 37.8241 101.453 37.8241C102.483 37.8241 103.432 37.9467 104.3 38.1919C105.169 38.43 105.925 38.7803 106.57 39.2426C107.214 39.6979 107.712 40.2582 108.062 40.9237C108.419 41.5891 108.598 42.3491 108.598 43.2037V54.1729H103.765V51.9244H103.638C103.351 52.4707 102.984 52.933 102.535 53.3113C102.094 53.6895 101.572 53.9732 100.97 54.1623C100.374 54.3515 99.7019 54.446 98.9524 54.446ZM100.539 51.0838C101.092 51.0838 101.59 50.9718 102.031 50.7476C102.479 50.5235 102.836 50.2153 103.103 49.823C103.369 49.4237 103.502 48.9614 103.502 48.4361V46.9021C103.355 46.9791 103.176 47.0492 102.966 47.1122C102.763 47.1753 102.539 47.2348 102.294 47.2908C102.048 47.3469 101.796 47.3959 101.537 47.4379C101.278 47.48 101.029 47.5185 100.791 47.5535C100.308 47.6306 99.8945 47.7496 99.5513 47.9107C99.2151 48.0719 98.9559 48.282 98.7738 48.5412C98.5987 48.7933 98.5111 49.0945 98.5111 49.4448C98.5111 49.9771 98.7002 50.3834 99.0785 50.6636C99.4637 50.9437 99.9505 51.0838 100.539 51.0838ZM116.877 32.6547V54.1729H111.739V32.6547H116.877ZM127.691 54.4776C126.003 54.4776 124.546 54.1448 123.32 53.4794C122.102 52.807 121.163 51.8508 120.505 50.611C119.853 49.3642 119.527 47.8827 119.527 46.1666C119.527 44.4995 119.857 43.0426 120.515 41.7957C121.174 40.5419 122.102 39.5683 123.299 38.8748C124.497 38.1744 125.909 37.8241 127.534 37.8241C128.682 37.8241 129.733 38.0028 130.686 38.36C131.638 38.7172 132.461 39.2461 133.155 39.9465C133.848 40.647 134.388 41.5121 134.773 42.5417C135.158 43.5644 135.351 44.7377 135.351 46.0615V47.3434H121.324V44.3594H130.57C130.563 43.8131 130.434 43.3262 130.181 42.899C129.929 42.4717 129.583 42.139 129.141 41.9008C128.707 41.6556 128.206 41.5331 127.639 41.5331C127.064 41.5331 126.55 41.6627 126.094 41.9218C125.639 42.174 125.278 42.5207 125.012 42.962C124.746 43.3963 124.606 43.8901 124.592 44.4435V47.48C124.592 48.1384 124.721 48.7163 124.981 49.2136C125.24 49.7039 125.607 50.0857 126.084 50.3589C126.56 50.632 127.127 50.7686 127.786 50.7686C128.241 50.7686 128.654 50.7056 129.026 50.5795C129.397 50.4534 129.716 50.2678 129.982 50.0226C130.248 49.7775 130.448 49.4763 130.581 49.119L135.298 49.2556C135.102 50.3133 134.671 51.2344 134.006 52.0189C133.348 52.7964 132.482 53.4023 131.411 53.8366C130.339 54.2639 129.099 54.4776 127.691 54.4776ZM143.113 44.9688V54.1729H137.975V38.0343H142.861V40.9972H143.039C143.397 40.0096 144.006 39.2356 144.867 38.6752C145.729 38.1078 146.755 37.8241 147.946 37.8241C149.081 37.8241 150.065 38.0798 150.898 38.5911C151.739 39.0955 152.39 39.8029 152.853 40.7135C153.322 41.6171 153.553 42.6748 153.546 43.8866V54.1729H148.408V44.8953C148.415 43.9987 148.188 43.2982 147.725 42.7939C147.27 42.2896 146.636 42.0374 145.824 42.0374C145.284 42.0374 144.808 42.1565 144.395 42.3946C143.988 42.6258 143.673 42.9585 143.449 43.3928C143.232 43.8271 143.12 44.3524 143.113 44.9688ZM165.837 38.0343V41.8168H155.655V38.0343H165.837ZM157.788 34.1677H162.926V49.098C162.926 49.4132 162.975 49.6689 163.073 49.865C163.178 50.0542 163.329 50.1907 163.525 50.2748C163.721 50.3518 163.956 50.3904 164.229 50.3904C164.425 50.3904 164.632 50.3729 164.849 50.3378C165.073 50.2958 165.241 50.2608 165.353 50.2328L166.131 53.9417C165.886 54.0117 165.539 54.0993 165.091 54.2044C164.649 54.3094 164.12 54.376 163.504 54.404C162.299 54.46 161.266 54.3199 160.405 53.9837C159.55 53.6405 158.895 53.1082 158.44 52.3867C157.991 51.6652 157.774 50.7581 157.788 49.6654V34.1677ZM180.016 32.6547V54.1729H174.815V32.6547H180.016ZM188.419 44.9688V54.1729H183.281V38.0343H188.166V40.9972H188.345C188.702 40.0096 189.312 39.2356 190.173 38.6752C191.035 38.1078 192.061 37.8241 193.252 37.8241C194.386 37.8241 195.371 38.0798 196.204 38.5911C197.045 39.0955 197.696 39.8029 198.158 40.7135C198.628 41.6171 198.859 42.6748 198.852 43.8866V54.1729H193.714V44.8953C193.721 43.9987 193.493 43.2982 193.031 42.7939C192.576 42.2896 191.942 42.0374 191.129 42.0374C190.59 42.0374 190.114 42.1565 189.7 42.3946C189.294 42.6258 188.979 42.9585 188.755 43.3928C188.538 43.8271 188.426 44.3524 188.419 44.9688ZM211.142 38.0343V41.8168H200.961V38.0343H211.142ZM203.094 34.1677H208.232V49.098C208.232 49.4132 208.281 49.6689 208.379 49.865C208.484 50.0542 208.635 50.1907 208.831 50.2748C209.027 50.3518 209.262 50.3904 209.535 50.3904C209.731 50.3904 209.937 50.3729 210.155 50.3378C210.379 50.2958 210.547 50.2608 210.659 50.2328L211.436 53.9417C211.191 54.0117 210.845 54.0993 210.396 54.2044C209.955 54.3094 209.426 54.376 208.81 54.404C207.605 54.46 206.572 54.3199 205.71 53.9837C204.856 53.6405 204.201 53.1082 203.745 52.3867C203.297 51.6652 203.08 50.7581 203.094 49.6654V34.1677ZM221.134 54.4776C219.446 54.4776 217.989 54.1448 216.763 53.4794C215.545 52.807 214.606 51.8508 213.948 50.611C213.296 49.3642 212.97 47.8827 212.97 46.1666C212.97 44.4995 213.3 43.0426 213.958 41.7957C214.617 40.5419 215.545 39.5683 216.742 38.8748C217.94 38.1744 219.352 37.8241 220.977 37.8241C222.125 37.8241 223.176 38.0028 224.129 38.36C225.081 38.7172 225.904 39.2461 226.598 39.9465C227.291 40.647 227.831 41.5121 228.216 42.5417C228.601 43.5644 228.794 44.7377 228.794 46.0615V47.3434H214.767V44.3594H224.013C224.006 43.8131 223.877 43.3262 223.624 42.899C223.372 42.4717 223.026 42.139 222.584 41.9008C222.15 41.6556 221.649 41.5331 221.082 41.5331C220.507 41.5331 219.993 41.6627 219.537 41.9218C219.082 42.174 218.721 42.5207 218.455 42.962C218.189 43.3963 218.049 43.8901 218.035 44.4435V47.48C218.035 48.1384 218.164 48.7163 218.424 49.2136C218.683 49.7039 219.05 50.0857 219.527 50.3589C220.003 50.632 220.57 50.7686 221.229 50.7686C221.684 50.7686 222.097 50.7056 222.469 50.5795C222.84 50.4534 223.159 50.2678 223.425 50.0226C223.691 49.7775 223.891 49.4763 224.024 49.119L228.741 49.2556C228.545 50.3133 228.114 51.2344 227.449 52.0189C226.791 52.7964 225.925 53.4023 224.854 53.8366C223.782 54.2639 222.542 54.4776 221.134 54.4776ZM238.941 60.561C237.407 60.561 236.094 60.3474 235.001 59.9201C233.908 59.4928 233.05 58.908 232.427 58.1655C231.803 57.423 231.428 56.5824 231.302 55.6438L236.167 55.3706C236.258 55.6999 236.426 55.987 236.671 56.2322C236.924 56.4774 237.249 56.6665 237.649 56.7996C238.055 56.9327 238.531 56.9992 239.077 56.9992C239.939 56.9992 240.65 56.7891 241.21 56.3688C241.778 55.9555 242.061 55.2305 242.061 54.1939V51.357H241.883C241.68 51.8543 241.371 52.2991 240.958 52.6914C240.545 53.0836 240.03 53.3918 239.414 53.616C238.804 53.8401 238.104 53.9522 237.312 53.9522C236.136 53.9522 235.057 53.679 234.076 53.1327C233.103 52.5793 232.322 51.7247 231.733 50.569C231.152 49.4062 230.861 47.9107 230.861 46.0825C230.861 44.1983 231.162 42.6468 231.765 41.428C232.367 40.2022 233.155 39.2951 234.129 38.7067C235.109 38.1183 236.164 37.8241 237.291 37.8241C238.139 37.8241 238.864 37.9712 239.466 38.2654C240.076 38.5526 240.576 38.9239 240.969 39.3792C241.361 39.8345 241.659 40.3073 241.862 40.7976H242.009V38.0343H247.126V54.2359C247.126 55.6018 246.783 56.754 246.096 57.6927C245.41 58.6313 244.45 59.3422 243.217 59.8256C241.984 60.3159 240.559 60.561 238.941 60.561ZM239.098 50.2118C239.722 50.2118 240.254 50.0471 240.696 49.7179C241.137 49.3887 241.477 48.9159 241.715 48.2995C241.953 47.6831 242.072 46.9441 242.072 46.0825C242.072 45.207 241.953 44.454 241.715 43.8236C241.484 43.1862 241.144 42.6958 240.696 42.3526C240.254 42.0094 239.722 41.8378 239.098 41.8378C238.461 41.8378 237.922 42.0129 237.48 42.3631C237.039 42.7133 236.703 43.2072 236.472 43.8446C236.248 44.475 236.136 45.221 236.136 46.0825C236.136 46.9441 236.251 47.6831 236.482 48.2995C236.713 48.9159 237.046 49.3887 237.48 49.7179C237.922 50.0471 238.461 50.2118 239.098 50.2118ZM250.401 54.1729V38.0343H255.392V40.9762H255.56C255.854 39.9115 256.334 39.12 257 38.6016C257.665 38.0763 258.439 37.8136 259.322 37.8136C259.56 37.8136 259.805 37.8311 260.057 37.8662C260.309 37.8942 260.544 37.9397 260.761 38.0028V42.4682C260.516 42.3841 260.194 42.3176 259.794 42.2685C259.402 42.2195 259.052 42.195 258.744 42.195C258.134 42.195 257.584 42.3316 257.094 42.6048C256.611 42.8709 256.229 43.2457 255.949 43.729C255.676 44.2053 255.539 44.7657 255.539 45.4101V54.1729H250.401ZM262.855 54.1729V38.0343H267.992V54.1729H262.855ZM265.429 36.1535C264.707 36.1535 264.087 35.9154 263.569 35.4391C263.051 34.9558 262.792 34.3744 262.792 33.6949C262.792 33.0225 263.051 32.4481 263.569 31.9718C264.087 31.4885 264.707 31.2468 265.429 31.2468C266.157 31.2468 266.777 31.4885 267.288 31.9718C267.807 32.4481 268.066 33.0225 268.066 33.6949C268.066 34.3744 267.807 34.9558 267.288 35.4391C266.777 35.9154 266.157 36.1535 265.429 36.1535ZM280.372 38.0343V41.8168H270.191V38.0343H280.372ZM272.324 34.1677H277.462V49.098C277.462 49.4132 277.511 49.6689 277.609 49.865C277.714 50.0542 277.865 50.1907 278.061 50.2748C278.257 50.3518 278.491 50.3904 278.765 50.3904C278.961 50.3904 279.167 50.3729 279.385 50.3378C279.609 50.2958 279.777 50.2608 279.889 50.2328L280.666 53.9417C280.421 54.0117 280.074 54.0993 279.626 54.2044C279.185 54.3094 278.656 54.376 278.04 54.404C276.835 54.46 275.802 54.3199 274.94 53.9837C274.086 53.6405 273.431 53.1082 272.975 52.3867C272.527 51.6652 272.31 50.7581 272.324 49.6654V34.1677ZM286.135 60.2248C285.519 60.2248 284.937 60.1758 284.391 60.0777C283.845 59.9867 283.375 59.8641 282.983 59.71L284.118 55.98C284.622 56.1481 285.077 56.2462 285.484 56.2742C285.897 56.3022 286.251 56.2357 286.545 56.0746C286.846 55.9205 287.077 55.6438 287.238 55.2446L287.438 54.7612L281.701 38.0343H287.081L290.054 49.5498H290.222L293.238 38.0343H298.649L292.565 55.7174C292.271 56.5999 291.854 57.3775 291.315 58.0499C290.783 58.7293 290.093 59.2617 289.245 59.6469C288.405 60.0322 287.368 60.2248 286.135 60.2248Z" fill="#003003"/>
<defs>
<clipPath id="clip0_2094_11377">
<rect width="25.2262" height="25.2262" fill="white" transform="translate(23.2681 27.782)"/>
</clipPath>
</defs>
</svg>
