<svg width="150" height="144" viewBox="0 0 150 144" fill="none" xmlns="http://www.w3.org/2000/svg">
<rect width="150" height="143.956" rx="10" fill="#E6F3E7"/>
<path fill-rule="evenodd" clip-rule="evenodd" d="M35.0927 44.6728C34.3875 67.0635 33.2747 102.395 75.1951 123.328V20.9695C70.4752 25.1549 56.4514 33.8337 35.2539 37.3105C35.2539 39.553 35.1762 42.0222 35.0927 44.6728ZM115.085 45.1643C115.787 67.4151 116.894 102.525 75.1952 123.328V21.6092C79.8902 25.7684 93.8398 34.3931 114.925 37.8481C114.925 40.0766 115.002 42.5304 115.085 45.1643Z" fill="#E6F3E7"/>
<path fill-rule="evenodd" clip-rule="evenodd" d="M75.1735 36.4362C75.1733 36.4361 75.1731 36.4359 75.1729 36.4358V36.4379C75.1731 36.4373 75.1733 36.4368 75.1735 36.4362ZM76.2642 34.4812C75.8317 34.9937 75.4668 35.6449 75.1735 36.4362C83.3471 41.7565 92.7809 45.6396 103.552 48.2752C104.934 49.7125 106.526 50.2413 108.456 49.3308C108.864 49.4126 109.259 49.4944 109.655 49.5766C109.951 49.638 110.248 49.6996 110.553 49.7615C111.851 51.3907 113.487 51.5357 115.457 50.5761V36.8687C105.398 35.2395 95.3779 32.5078 86.2382 27.6671C84.3826 27.6331 83.101 28.2538 82.4422 29.6231L81.8047 29.3946C79.9211 30.0699 76.1537 31.9749 76.1537 34.1927C76.1537 34.2815 76.1913 34.3778 76.2642 34.4812Z" fill="#015306"/>
<path fill-rule="evenodd" clip-rule="evenodd" d="M45.7686 44.1429C45.0481 45.8437 45.7591 47.0873 46.7967 48.2734C56.6913 45.8786 66.3727 42.1383 75.1755 36.4339C76.809 35.3805 78.4446 34.229 79.9544 33.0796C80.6261 32.5507 81.2957 32.024 81.9674 31.4973C83.4345 30.2498 84.859 29.0044 86.2409 27.6631C82.3854 25.601 78.6557 23.1572 75.1755 20.3296C73.7489 21.4811 72.3244 22.5815 70.8168 23.588C63.4811 28.6697 55.2647 32.0709 46.7967 34.3249C45.1685 35.9441 45.1848 37.5633 46.1632 39.1825L44.4873 40.1636C44.4873 40.8534 44.7606 42.4746 45.7686 44.1429Z" fill="#017D09"/>
<path fill-rule="evenodd" clip-rule="evenodd" d="M115.458 54.6962V50.5741C114.734 50.4497 114.017 50.3345 113.308 50.2205C113.249 50.2111 113.191 50.2017 113.132 50.1923L110.167 49.6531L108.457 49.3325V49.3288L108.292 49.2947C106.711 48.9692 105.133 48.6441 103.552 48.2732V54.6962C103.552 82.6378 94.6663 96.7782 75.1734 108.569C72.1356 110.41 69.0082 112.1 65.8886 113.785C64.705 114.425 63.5226 115.064 62.3467 115.71C66.1617 118.54 70.4372 121.223 75.1734 123.762C103.678 108.33 115.458 88.9179 115.458 54.6962Z" fill="#018B0A"/>
<path fill-rule="evenodd" clip-rule="evenodd" d="M34.8916 54.6964V36.8669H34.8937C38.9177 36.1952 42.899 35.3806 46.7971 34.3271V54.6964C46.7971 82.6381 55.7258 96.7784 75.176 108.569C74.59 110.423 73.4932 111.66 71.3953 111.747L73.9156 114.267H67.2816C66.6043 115.943 65.0142 115.849 63.4308 115.754C63.0654 115.732 62.7004 115.71 62.3471 115.71C43.108 101.476 34.8916 83.2139 34.8916 54.6964Z" fill="#018B0A"/>
<g clip-path="url(#clip0_2060_8307)">
<path d="M83.4069 83.1354L82.8574 85.3817C81.2089 86.0324 79.8921 86.5276 78.9115 86.8681C77.9299 87.2096 76.7893 87.3795 75.4898 87.3795C73.4941 87.3795 71.9418 86.8906 70.8347 85.9196C69.7276 84.9447 69.1739 83.7092 69.1739 82.2105C69.1739 81.6304 69.214 81.0336 69.2976 80.4256C69.3818 79.8169 69.5158 79.1314 69.699 78.3651L71.7592 71.0732C71.9425 70.375 72.0983 69.7134 72.2231 69.0877C72.3496 68.466 72.4106 67.8939 72.4106 67.379C72.4106 66.4477 72.2178 65.7964 71.8339 65.4302C71.4501 65.065 70.7177 64.8796 69.6303 64.8796C69.0977 64.8796 68.5503 64.9649 67.9924 65.1299C67.432 65.2955 66.9529 65.4555 66.5508 65.6043L67.1017 63.3562C68.4513 62.8067 69.7413 62.3362 70.9753 61.9457C72.2093 61.5541 73.3753 61.3581 74.4782 61.3581C76.4601 61.3581 77.9895 61.8371 79.0635 62.7951C80.1374 63.7538 80.6742 64.9966 80.6742 66.5281C80.6742 66.845 80.639 67.4033 80.5632 68.2013C80.4892 69.001 80.3514 69.7338 80.1505 70.4003L78.0991 77.663C77.931 78.2463 77.7798 78.9132 77.6483 79.6636C77.5126 80.4091 77.4477 80.9787 77.4477 81.3607C77.4477 82.3251 77.6627 82.9835 78.0938 83.3335C78.5281 83.6835 79.276 83.8576 80.3383 83.8576C80.8371 83.8576 81.4046 83.7692 82.0351 83.5954C82.6639 83.4216 83.1225 83.269 83.4069 83.1354ZM83.9272 52.6447C83.9272 53.91 83.4503 54.9907 82.4919 55.8793C81.536 56.771 80.3842 57.2173 79.0367 57.2173C77.6849 57.2173 76.5303 56.771 75.5634 55.8793C74.5984 54.9904 74.1148 53.91 74.1148 52.6447C74.1148 51.3818 74.5984 50.2993 75.5634 49.3995C76.5285 48.501 77.6853 48.052 79.0367 48.052C80.3838 48.052 81.536 48.5021 82.4919 49.3995C83.451 50.2993 83.9272 51.3821 83.9272 52.6447Z" fill="#018B0A"/>
</g>
<defs>
<clipPath id="clip0_2060_8307">
<rect width="39.3275" height="39.3275" fill="white" transform="translate(55.5752 48.0516)"/>
</clipPath>
</defs>
</svg>
